<svg width="15" height="16" viewBox="0 0 15 16" fill="none" xmlns="http://www.w3.org/2000/svg">
<path d="M3.64789 9C2.68041 9 1.75255 9.36875 1.06844 10.0251C0.38433 10.6815 0 11.5717 0 12.5C0 13.4283 0.38433 14.3185 1.06844 14.9749C1.75255 15.6313 2.68041 16 3.64789 16H10.9437C11.9111 16 12.839 15.6313 13.5231 14.9749C14.2072 14.3185 14.5915 13.4283 14.5915 12.5C14.5915 11.5717 14.2072 10.6815 13.5231 10.0251C12.839 9.36875 11.9111 9 10.9437 9H3.64789ZM10.9437 15C10.2526 15 9.58985 14.7366 9.1012 14.2678C8.61255 13.7989 8.33803 13.163 8.33803 12.5C8.33803 11.837 8.61255 11.2011 9.1012 10.7322C9.58985 10.2634 10.2526 10 10.9437 10C11.6347 10 12.2975 10.2634 12.7861 10.7322C13.2748 11.2011 13.5493 11.837 13.5493 12.5C13.5493 13.163 13.2748 13.7989 12.7861 14.2678C12.2975 14.7366 11.6347 15 10.9437 15ZM3.64789 1C2.95683 1 2.29408 1.26339 1.80543 1.73223C1.31677 2.20107 1.04225 2.83696 1.04225 3.5C1.04225 4.16304 1.31677 4.79893 1.80543 5.26777C2.29408 5.73661 2.95683 6 3.64789 6C4.33894 6 5.0017 5.73661 5.49035 5.26777C5.979 4.79893 6.25352 4.16304 6.25352 3.5C6.25352 2.83696 5.979 2.20107 5.49035 1.73223C5.0017 1.26339 4.33894 1 3.64789 1ZM6.20141 1C6.54844 1.32558 6.82404 1.7145 7.01199 2.14386C7.19994 2.57321 7.29643 3.03431 7.29577 3.5C7.29643 3.96569 7.19994 4.42679 7.01199 4.85614C6.82404 5.2855 6.54844 5.67442 6.20141 6H10.9437C11.6347 6 12.2975 5.73661 12.7861 5.26777C13.2748 4.79893 13.5493 4.16304 13.5493 3.5C13.5493 2.83696 13.2748 2.20107 12.7861 1.73223C12.2975 1.26339 11.6347 1 10.9437 1H6.20141ZM3.64789 0H10.9437C11.9111 0 12.839 0.368749 13.5231 1.02513C14.2072 1.6815 14.5915 2.57174 14.5915 3.5C14.5915 4.42826 14.2072 5.3185 13.5231 5.97487C12.839 6.63125 11.9111 7 10.9437 7H3.64789C2.68041 7 1.75255 6.63125 1.06844 5.97487C0.38433 5.3185 0 4.42826 0 3.5C0 2.57174 0.38433 1.6815 1.06844 1.02513C1.75255 0.368749 2.68041 0 3.64789 0Z" fill="white"/>
</svg>
