<svg width="36" height="36" viewBox="0 0 36 36" fill="none" xmlns="http://www.w3.org/2000/svg">
<g clip-path="url(#clip0_220_384)">
<path d="M33.75 0H2.25C1.65326 0 1.08097 0.237053 0.65901 0.65901C0.237053 1.08097 0 1.65326 0 2.25L0 33.75C0 34.3467 0.237053 34.919 0.65901 35.341C1.08097 35.7629 1.65326 36 2.25 36H33.75C34.3467 36 34.919 35.7629 35.341 35.341C35.7629 34.919 36 34.3467 36 33.75V2.25C36 1.65326 35.7629 1.08097 35.341 0.65901C34.919 0.237053 34.3467 0 33.75 0ZM34.875 32.625C34.875 33.2217 34.6379 33.794 34.216 34.216C33.794 34.6379 33.2217 34.875 32.625 34.875H3.375C2.77826 34.875 2.20597 34.6379 1.78401 34.216C1.36205 33.794 1.125 33.2217 1.125 32.625V10.125H34.875V32.625ZM34.875 9H1.125V3.375C1.125 2.77826 1.36205 2.20597 1.78401 1.78401C2.20597 1.36205 2.77826 1.125 3.375 1.125H32.625C33.2217 1.125 33.794 1.36205 34.216 1.78401C34.6379 2.20597 34.875 2.77826 34.875 3.375V9Z" fill="#308CF0"/>
<path d="M5.0625 5.625C5.37316 5.625 5.625 5.37316 5.625 5.0625C5.625 4.75184 5.37316 4.5 5.0625 4.5C4.75184 4.5 4.5 4.75184 4.5 5.0625C4.5 5.37316 4.75184 5.625 5.0625 5.625Z" fill="#308CF0"/>
<path d="M8.4375 5.625C8.74816 5.625 9 5.37316 9 5.0625C9 4.75184 8.74816 4.5 8.4375 4.5C8.12684 4.5 7.875 4.75184 7.875 5.0625C7.875 5.37316 8.12684 5.625 8.4375 5.625Z" fill="#308CF0"/>
<path d="M11.8125 5.625C12.1232 5.625 12.375 5.37316 12.375 5.0625C12.375 4.75184 12.1232 4.5 11.8125 4.5C11.5018 4.5 11.25 4.75184 11.25 5.0625C11.25 5.37316 11.5018 5.625 11.8125 5.625Z" fill="#308CF0"/>
</g>
<defs>
<clipPath id="clip0_220_384">
<rect width="36" height="36" fill="white"/>
</clipPath>
</defs>
</svg>
