<svg width="36" height="36" viewBox="0 0 36 36" fill="none" xmlns="http://www.w3.org/2000/svg">
<path d="M18.2426 6.38745C16.7299 6.79065 15.3183 7.58301 14.108 8.72133C13.0421 9.71529 13.0421 9.71529 12.4945 9.57129C11.025 9.15369 9.18106 9.52809 7.9135 10.5077C7.13554 11.0984 6.32878 12.4236 6.02638 13.5615L5.78158 14.5267L4.75882 15.0311C1.48858 16.6298 -0.268944 20.3609 0.566616 23.9335C1.08538 26.1374 2.46814 27.8373 4.55722 28.8457C6.76114 29.8973 6.30034 29.8685 18.0122 29.8685C27.765 29.8685 28.5861 29.8397 29.5369 29.5949C32.562 28.8169 34.6075 27.0162 35.3714 24.4951C35.8034 23.0976 35.7026 20.7497 35.1554 19.3089C34.2911 17.0039 32.6919 15.4479 30.3437 14.5983C29.6089 14.3247 29.4361 14.1951 29.3641 13.8924C29.1769 12.9992 28.5429 11.3569 28.053 10.5501C26.1371 7.26585 21.7865 5.42193 18.2426 6.38745ZM22.1753 7.75581C23.5296 8.04381 24.5523 8.56257 25.5319 9.48454C26.9438 10.7953 27.8082 12.5672 27.9954 14.5267L28.0818 15.5351L28.9317 15.6359C30.8189 15.8807 32.8068 17.2926 33.6423 18.9925C34.5067 20.75 34.5355 23.2423 33.7287 25.0286C33.0228 26.5701 31.1645 27.9817 29.3061 28.4141C28.8885 28.5149 24.8259 28.5725 18.1415 28.5725C6.70318 28.5725 6.81838 28.5869 5.13322 27.7657C3.5917 27.0165 2.30974 25.2878 1.92058 23.4007C1.66138 22.1187 1.80538 20.2892 2.26618 19.3097C3.00094 17.6961 5.13286 15.9818 6.77518 15.665C7.26478 15.5786 7.26478 15.5786 7.26478 14.7575C7.26478 13.0863 7.89874 11.9052 9.1663 11.2136C9.82906 10.8389 10.0739 10.7816 11.0822 10.7957C11.9754 10.7957 12.3642 10.8677 12.8397 11.1125L13.4301 11.4149L14.0209 10.6369C15.9087 8.14497 18.9342 7.07865 22.1753 7.75581Z" fill="#55D1E4"/>
</svg>
