<svg width="20" height="15" viewBox="0 0 20 15" fill="none" xmlns="http://www.w3.org/2000/svg">
<path d="M19.6603 12.9685L15.8039 10.0478C15.6298 9.91602 15.3938 9.84279 15.1463 9.84279H14.5158C15.5834 8.80871 16.2177 7.50806 16.2177 6.09316C16.2177 2.72727 12.6166 0 8.17225 0C3.7279 0 0.12677 2.72727 0.12677 6.09316C0.12677 9.45904 3.7279 12.1863 8.17225 12.1863C10.0405 12.1863 11.7579 11.7059 13.1233 10.8974V11.3749C13.1233 11.5623 13.22 11.741 13.3941 11.8729L17.2505 14.7935C17.6141 15.0688 18.202 15.0688 18.5618 14.7935L19.6564 13.9645C20.02 13.6891 20.02 13.2438 19.6603 12.9685ZM8.17225 9.84279C5.43756 9.84279 3.22119 8.16717 3.22119 6.09316C3.22119 4.02207 5.43369 2.34352 8.17225 2.34352C10.9069 2.34352 13.1233 4.01914 13.1233 6.09316C13.1233 8.16424 10.9108 9.84279 8.17225 9.84279Z" fill="#FFFEFE"/>
</svg>
