<svg width="36" height="36" viewBox="0 0 36 36" fill="none" xmlns="http://www.w3.org/2000/svg">
<path d="M16.3717 1.56531C14.0472 1.80039 11.9095 2.43003 9.91011 3.46791C4.55511 6.24207 1.01991 11.4516 0.417989 17.4291C0.300269 18.5915 0.369389 20.7915 0.556229 21.8985C1.26867 26.0979 3.42723 29.9099 6.61683 32.6013C7.48155 33.3277 9.07995 34.4002 9.38415 34.4621C10.0966 34.5935 10.7331 34.0679 10.7331 33.3414C10.7331 32.8295 10.5531 32.6149 9.57063 31.9579C9.10695 31.6465 8.51223 31.2178 8.25627 31.0101C7.67523 30.5259 6.29823 29.1215 5.87631 28.5747C4.16775 26.3257 3.08163 23.7107 2.74251 20.9988C2.58339 19.7604 2.62479 17.7333 2.83935 16.5366C3.44811 13.1119 5.15703 10.0127 7.70979 7.72959C14.7319 1.44075 25.5935 2.82459 30.8376 10.6697C32.0692 12.5169 32.9339 14.8068 33.259 17.1245C33.3699 17.8855 33.4044 19.9055 33.3213 20.6183C32.7816 25.3987 30.3185 29.4113 26.3268 32.0335C25.5312 32.5591 25.3444 32.7532 25.2821 33.1405C25.1575 33.9153 25.8426 34.6072 26.5965 34.4617C27.1984 34.3512 29.1355 32.9051 30.4567 31.5907C33.3209 28.7197 35.0367 25.2259 35.5417 21.2062C35.6731 20.1546 35.6731 18.0792 35.5349 16.9859C34.8153 11.2162 31.3009 6.16575 26.1468 3.49527C24.286 2.53371 22.6048 1.98723 20.4876 1.66179C19.6164 1.53075 17.2501 1.46847 16.3717 1.56531Z" fill="#308CF0"/>
<path d="M16.0604 5.60564C13.1062 6.05527 10.4289 7.40456 8.3463 9.4868C4.18146 13.6516 3.15078 19.9333 5.76582 25.1842C6.90054 27.4465 8.79594 29.515 10.9063 30.7812C11.2036 30.968 11.3905 31.0303 11.6119 31.0303C12.262 31.0303 12.7671 30.5461 12.7671 29.9233C12.7671 29.425 12.5803 29.19 11.8055 28.664C7.75842 25.9312 5.85582 21.2754 6.8865 16.64C7.62666 13.333 9.87522 10.4689 12.9122 8.96768C13.9292 8.46259 14.4825 8.26892 15.5204 8.03384C19.2287 7.20368 23.1373 8.29663 25.8632 10.9257C27.503 12.5032 28.6582 14.5441 29.1424 16.7026C29.6889 19.2003 29.3638 21.7808 28.1945 24.1467C27.2607 26.0353 25.9046 27.5646 24.0988 28.7266C23.4346 29.1558 23.2546 29.3977 23.2546 29.8819C23.2546 30.532 23.7388 31.0303 24.3753 31.0303C25.1986 31.0303 27.5786 29.1 28.8793 27.3705C31.6189 23.7385 32.3939 19.1445 30.9964 14.8828C29.6335 10.7248 26.2783 7.41788 22.0717 6.08948C20.7778 5.68124 19.9477 5.55667 18.2737 5.53616C17.1533 5.51563 16.5309 5.53616 16.0604 5.60564Z" fill="#308CF0"/>
<path d="M16.7174 9.54187C14.462 9.86695 12.5389 10.8562 10.9891 12.482C9.72977 13.8104 8.89961 15.3875 8.51225 17.1933C8.29085 18.2171 8.29085 20.0369 8.50541 21.0122C8.92733 22.9493 9.81293 24.5751 11.1827 25.9449C11.9161 26.6782 12.9676 27.4461 13.4173 27.5638C14.1783 27.7712 14.9393 27.031 14.7871 26.2286C14.7248 25.8963 14.5243 25.6753 13.9569 25.3016C13.6869 25.1216 13.2236 24.7483 12.9259 24.4646C11.9711 23.5513 11.3901 22.6451 10.9819 21.4136C9.64013 17.3805 11.9924 13.0979 16.1641 11.9636C16.7869 11.7908 16.9733 11.7767 17.9975 11.7767C19.0077 11.7767 19.2151 11.7976 19.817 11.9567C22.4943 12.6692 24.4592 14.6481 25.2065 17.3809C25.4071 18.1142 25.4279 19.9477 25.2411 20.7087C24.7846 22.6045 23.6636 24.2234 22.0864 25.2749C21.3045 25.7937 21.0626 26.2228 21.2494 26.7693C21.5122 27.5649 22.3078 27.8277 23.062 27.3644C25.0615 26.14 26.6458 24.0574 27.3028 21.7952C27.6074 20.7573 27.7042 19.9203 27.6556 18.751C27.6002 17.1937 27.3097 16.073 26.5969 14.6963C26.1058 13.7416 25.5039 12.9529 24.6597 12.1436C23.2967 10.8361 21.6364 9.97134 19.7824 9.61855C18.9937 9.4659 17.4856 9.43134 16.7174 9.54187Z" fill="#308CF0"/>
<path d="M16.7868 13.5685C15.0297 13.9422 13.4936 15.222 12.7602 16.9168C12.2415 18.1275 12.1792 19.6219 12.5943 20.8603C12.9611 21.9532 13.5976 22.8734 14.4692 23.5653C15.2993 24.2295 15.853 24.34 16.3786 23.939C17.0151 23.4548 16.9596 22.5483 16.2749 22.0782C14.6492 20.9575 14.1578 19.1863 15.002 17.5051C15.2302 17.0623 15.929 16.3635 16.3718 16.1353C17.4993 15.5679 18.8208 15.6025 19.8033 16.2321C20.2047 16.4881 20.7512 17.0554 20.9862 17.4705C21.3668 18.1279 21.5118 19.2349 21.3182 19.9682C21.1036 20.7638 20.5434 21.5248 19.817 22.009C19.2014 22.4173 19.0282 22.9638 19.3328 23.5588C19.5056 23.9185 19.9415 24.1816 20.3498 24.1816C20.6334 24.1816 21.194 23.8702 21.7332 23.4206C22.4457 22.8255 23.1585 21.7257 23.4627 20.757C23.6981 20.0168 23.7395 18.5916 23.5386 17.8168C22.8953 15.2295 20.619 13.4443 17.9972 13.4652C17.5961 13.4648 17.0565 13.513 16.7868 13.5685Z" fill="#308CF0"/>
<path d="M17.4784 16.91C16.6414 17.1451 16.0532 17.7193 15.8181 18.5426C15.659 19.0754 15.7144 19.5805 15.9909 20.1406C16.6965 21.5796 18.6545 21.8287 19.7198 20.6112C20.114 20.1684 20.2454 19.8015 20.2454 19.1305C20.2454 18.6254 20.2177 18.4872 20.0517 18.1549C19.8303 17.6912 19.3598 17.2347 18.9101 17.041C18.5581 16.8823 17.8175 16.82 17.4784 16.91Z" fill="#308CF0"/>
</svg>
