<svg width="44" height="44" viewBox="0 0 44 44" fill="none" xmlns="http://www.w3.org/2000/svg">
<g filter="url(#filter0_d_220_370)">
<path d="M20.125 0.24254C19.625 1.0847 29.0249 21.8297 29.8999 21.8297C30.25 21.8297 31.9496 20.9083 32.3501 20.5134C32.7251 20.1185 28.25 11.7997 23.8004 4.5863C21.1001 0.216347 20.5249 -0.46866 20.125 0.24254Z" fill="#308CF0"/>
<path d="M18.6498 6.79785C18.25 7.27199 18.2997 7.32437 19.7997 8.21958C20.6747 8.71991 21.4496 9.06174 21.5746 9.00936C21.6747 8.95697 21.7493 8.56209 21.7493 8.14034C21.75 6.63936 19.5752 5.71796 18.6498 6.79785Z" fill="#308CF0"/>
<path d="M16.7749 9.24565C16.5746 9.71978 16.3246 10.1671 16.2251 10.2463C16.125 10.3249 15.9751 10.6936 15.875 11.0623C15.7251 11.6942 15.8501 11.8258 17.375 12.7211C19.1499 13.7479 19.75 13.8795 19.75 13.2738C19.75 13.0629 19.875 12.8789 20 12.8789C20.1499 12.8789 20.25 12.7211 20.25 12.5364C20.25 12.3786 20.4751 11.9306 20.75 11.5626C21.0249 11.1946 21.25 10.8259 21.25 10.7204C21.25 10.5102 17.7997 8.40349 17.4247 8.40349C17.25 8.40349 16.9751 8.79838 16.7749 9.24565Z" fill="#308CF0"/>
<path d="M13.7003 15.0636C7.52555 26.3313 6.80042 27.753 7.05042 28.0687C7.37568 28.4897 9.85017 29.9907 10.2003 29.9907C10.3502 29.9907 10.8253 29.3064 11.2755 28.4636C11.7258 27.6476 13.5255 24.3307 15.3004 21.1185C17.0504 17.907 18.5007 15.169 18.5007 15.0374C18.5007 14.8796 17.7258 14.3 16.7755 13.7211L15.0255 12.6681L13.7003 15.0636Z" fill="#308CF0"/>
<path d="M4 21.6981V25.2521H5.35013H6.70025L8.52551 21.9083C9.55038 20.0655 10.4005 18.4597 10.4503 18.3543C10.5006 18.2489 9.07525 18.1434 7.27551 18.1434H4.00064V21.6981H4Z" fill="#308CF0"/>
<path d="M16.5753 21.5403C15.5753 23.4093 14.7501 25.0157 14.7501 25.0943C14.7501 25.1735 18.1754 25.2521 22.3751 25.2521H30.0001L28.8502 23.1984C28.2252 22.093 27.3751 20.4866 26.9752 19.6444L26.2501 18.1441H22.2998L18.3751 18.1703L16.5753 21.5403Z" fill="#308CF0"/>
<path d="M33.0001 18.2495C33.0001 18.3287 34.8751 22.4616 35.6997 24.199C36.1499 25.1204 36.1499 25.1204 38.0747 25.199L40.0001 25.2782V21.698V18.144H36.5001C34.5753 18.144 33.0001 18.1964 33.0001 18.2495Z" fill="#308CF0"/>
<path d="M31.7003 22.3299C31.0249 22.6986 30.5 23.0935 30.5 23.1983C30.5 23.2775 30.9503 24.1989 31.5249 25.2251L32.5497 27.0941L33.5249 26.5414C34.0753 26.252 34.5746 25.8833 34.6499 25.6993C34.6996 25.5152 34.4247 24.62 34 23.7248C33.6001 22.8296 33.25 21.9613 33.25 21.8296C33.25 21.4609 33.0497 21.5402 31.7003 22.3299Z" fill="#308CF0"/>
<path d="M34.1996 27.6215L33.2997 28.148L34.4745 31.0962C36.1492 35.2291 36.4247 35.7556 37.0995 35.9403C38.3992 36.2828 39.6996 35.0981 39.3992 33.8342C39.2494 33.1499 35.5242 27.0949 35.2742 27.0949C35.1996 27.1211 34.6996 27.3582 34.1996 27.6215Z" fill="#308CF0"/>
<path d="M5.89984 31.3856C5.64984 32.5702 5.32458 34.0182 5.14984 34.5977L4.82458 35.6508L7.02484 33.4131C9.42471 30.9645 9.39984 31.0699 7.4751 29.9115L6.32522 29.2271L5.89984 31.3856Z" fill="#308CF0"/>
</g>
<defs>
<filter id="filter0_d_220_370" x="0" y="0" width="44.0001" height="44.0001" filterUnits="userSpaceOnUse" color-interpolation-filters="sRGB">
<feFlood flood-opacity="0" result="BackgroundImageFix"/>
<feColorMatrix in="SourceAlpha" type="matrix" values="0 0 0 0 0 0 0 0 0 0 0 0 0 0 0 0 0 0 127 0" result="hardAlpha"/>
<feOffset dy="4"/>
<feGaussianBlur stdDeviation="2"/>
<feComposite in2="hardAlpha" operator="out"/>
<feColorMatrix type="matrix" values="0 0 0 0 0 0 0 0 0 0 0 0 0 0 0 0 0 0 0.25 0"/>
<feBlend mode="normal" in2="BackgroundImageFix" result="effect1_dropShadow_220_370"/>
<feBlend mode="normal" in="SourceGraphic" in2="effect1_dropShadow_220_370" result="shape"/>
</filter>
</defs>
</svg>
