<svg width="53" height="50" viewBox="0 0 53 50" fill="none" xmlns="http://www.w3.org/2000/svg">
<g clip-path="url(#clip0_136_3)">
<path d="M45.05 0H7.95C3.55934 0 0 3.35786 0 7.5V42.5C0 46.6421 3.55934 50 7.95 50H45.05C49.4407 50 53 46.6421 53 42.5V7.5C53 3.35786 49.4407 0 45.05 0Z" fill="url(#paint0_linear_136_3)"/>
<path d="M45.05 0H28.4047C26.2102 4.80469 22.2766 12.6562 22.1109 27.6758C22.1082 27.8052 22.133 27.9338 22.1839 28.054C22.2348 28.1743 22.3108 28.2836 22.4073 28.3756C22.5038 28.4676 22.619 28.5403 22.7459 28.5896C22.8728 28.6388 23.0089 28.6634 23.1461 28.6621H29.2225C29.3597 28.6621 29.4955 28.688 29.6219 28.7384C29.7484 28.7888 29.8627 28.8627 29.9583 28.9556C30.0539 29.0485 30.1287 29.1585 30.1784 29.2792C30.228 29.3999 30.2514 29.5288 30.2473 29.6582C30.0963 36.4873 30.7595 43.3107 32.2244 50H45.05C47.1585 50 49.1806 49.2098 50.6715 47.8033C52.1624 46.3968 53 44.4891 53 42.5V7.5C53 5.51088 52.1624 3.60322 50.6715 2.1967C49.1806 0.790176 47.1585 0 45.05 0Z" fill="url(#paint1_linear_136_3)"/>
<path d="M38.4043 14.5508V17.8711M14.6992 14.5508V17.8711M41.9652 32.2461C37.813 36.0244 32.269 38.1358 26.5 38.1358C20.731 38.1358 15.187 36.0244 11.0348 32.2461" stroke="black" stroke-width="5" stroke-linecap="round"/>
</g>
<defs>
<linearGradient id="paint0_linear_136_3" x1="0" y1="5000" x2="0" y2="0" gradientUnits="userSpaceOnUse">
<stop stop-color="#1E73F2"/>
<stop offset="1" stop-color="#19D3FD"/>
</linearGradient>
<linearGradient id="paint1_linear_136_3" x1="22.1107" y1="5000" x2="22.1107" y2="0" gradientUnits="userSpaceOnUse">
<stop stop-color="#DBE9F4"/>
<stop offset="1" stop-color="#F7F6F6"/>
</linearGradient>
<clipPath id="clip0_136_3">
<rect width="53" height="50" fill="white"/>
</clipPath>
</defs>
</svg>
