<svg width="54" height="42" viewBox="0 0 54 42" fill="none" xmlns="http://www.w3.org/2000/svg">
<path fill-rule="evenodd" clip-rule="evenodd" d="M4.83331 0.729176H12.7083C13.8591 0.719018 14.9684 1.15856 15.8 1.95418C17.6083 3.58751 18.8333 4.46251 19.5917 4.46251C20.2916 4.46251 16.4416 7.72918 7.98331 14.2625C7.27527 14.8073 6.42882 15.1428 5.53986 15.2312C4.65089 15.3196 3.75494 15.1573 2.95348 14.7626C2.15203 14.368 1.47712 13.7568 1.0052 12.9982C0.533275 12.2397 0.283204 11.3642 0.283315 10.4708V5.33751C0.278085 4.73578 0.391779 4.13895 0.617866 3.58128C0.843953 3.02362 1.17798 2.51612 1.60076 2.08791C2.02355 1.65971 2.52676 1.31924 3.08149 1.08607C3.63623 0.852899 4.23157 0.731612 4.83331 0.729176Z" fill="#1AA6F7"/>
<path fill-rule="evenodd" clip-rule="evenodd" d="M14.925 4.40417H49.1667C50.3729 4.40572 51.5293 4.88559 52.3823 5.73854C53.2353 6.5915 53.7151 7.74791 53.7167 8.95417V19.2208C53.7151 20.4271 53.2353 21.5835 52.3823 22.4365C51.5293 23.2894 50.3729 23.7693 49.1667 23.7708H14.925C13.7187 23.7693 12.5623 23.2894 11.7094 22.4365C10.8564 21.5835 10.3765 20.4271 10.375 19.2208V8.95417C10.3864 7.75098 10.8695 6.6003 11.7203 5.74947C12.5711 4.89864 13.7218 4.4156 14.925 4.40417Z" fill="#1AA6F7"/>
<path fill-rule="evenodd" clip-rule="evenodd" d="M4.19167 7.20419H49.8083C49.9539 7.20408 50.0981 7.23269 50.2326 7.28835C50.3671 7.34401 50.4893 7.42565 50.5923 7.52859C50.6952 7.63152 50.7768 7.75375 50.8325 7.88826C50.8882 8.02277 50.9168 8.16694 50.9167 8.31252V25.4042C50.9168 25.5498 50.8882 25.6939 50.8325 25.8284C50.7768 25.963 50.6952 26.0852 50.5923 26.1881C50.4893 26.2911 50.3671 26.3727 50.2326 26.4284C50.0981 26.484 49.9539 26.5126 49.8083 26.5125H4.19167C4.04609 26.5126 3.90192 26.484 3.76741 26.4284C3.63289 26.3727 3.51067 26.2911 3.40773 26.1881C3.3048 26.0852 3.22316 25.963 3.1675 25.8284C3.11183 25.6939 3.08324 25.5498 3.08334 25.4042V8.31252C3.07338 8.1644 3.09523 8.01586 3.14741 7.87688C3.19959 7.7379 3.28089 7.61169 3.38586 7.50671C3.49084 7.40174 3.61705 7.32044 3.75603 7.26826C3.89501 7.21608 4.04355 7.19423 4.19167 7.20419Z" fill="white"/>
<path fill-rule="evenodd" clip-rule="evenodd" d="M2.55845 9.01251H51.4418C52.0449 9.01325 52.6231 9.25318 53.0496 9.67966C53.4761 10.1061 53.716 10.6844 53.7168 11.2875V36.7208C53.7152 37.9271 53.2354 39.0835 52.3824 39.9365C51.5295 40.7894 50.373 41.2693 49.1668 41.2708H4.83345C3.62719 41.2693 2.47077 40.7894 1.61782 39.9365C0.76486 39.0835 0.284991 37.9271 0.283447 36.7208V11.2875C0.284179 10.6844 0.524101 10.1061 0.950588 9.67965C1.37707 9.25317 1.9553 9.01324 2.55845 9.01251Z" fill="url(#paint0_linear_316_269)"/>
<defs>
<linearGradient id="paint0_linear_316_269" x1="26.9955" y1="41.2762" x2="26.9955" y2="9.01932" gradientUnits="userSpaceOnUse">
<stop stop-color="#1D77F2"/>
<stop offset="1" stop-color="#18C1FA"/>
</linearGradient>
</defs>
</svg>
