<svg width="53" height="50" viewBox="0 0 53 50" fill="none" xmlns="http://www.w3.org/2000/svg">
<g clip-path="url(#clip0_152_14)">
<path fill-rule="evenodd" clip-rule="evenodd" d="M2.28748e-05 39.1667V10.8334C-0.00299167 9.4099 0.291976 7.9999 0.868 6.68425C1.44402 5.36861 2.28976 4.17322 3.35669 3.16669C4.42362 2.16015 5.69073 1.36229 7.08531 0.818868C8.47989 0.275449 9.9745 -0.00282233 11.4834 2.158e-05H41.5167C43.0256 -0.00282233 44.5202 0.275449 45.9147 0.818868C47.3093 1.36229 48.5764 2.16015 49.6434 3.16669C50.7103 4.17322 51.556 5.36861 52.132 6.68425C52.7081 7.9999 53.003 9.4099 53 10.8334V39.1667C53.003 40.5901 52.7081 42.0001 52.132 43.3158C51.556 44.6314 50.7103 45.8268 49.6434 46.8334C48.5764 47.8399 47.3093 48.6378 45.9147 49.1812C44.5202 49.7246 43.0256 50.0029 41.5167 50H11.4834C8.43822 49.9987 5.5182 48.8569 3.36496 46.8255C1.21173 44.7942 0.00142735 42.0395 2.28748e-05 39.1667Z" fill="url(#paint0_linear_152_14)"/>
<path fill-rule="evenodd" clip-rule="evenodd" d="M43.725 35.9167C43.3211 36.1336 42.8647 36.2484 42.4 36.25H10.6C10.1345 36.2539 9.67661 36.1387 9.275 35.9167L19.875 25.9167L22.4808 28.375C23.0125 28.8578 23.6435 29.2327 24.3348 29.4763C25.0261 29.72 25.763 29.8273 26.5 29.7917C27.2366 29.8235 27.9724 29.7144 28.6631 29.471C29.3538 29.2275 29.9852 28.8547 30.5192 28.375L33.125 25.9167L43.725 35.9167ZM44.6525 35L34.0525 25L44.6525 15C44.8824 15.381 45.0041 15.8116 45.0058 16.25V33.75C45.047 34.1929 44.922 34.6353 44.6525 35ZM8.30333 35C8.07341 34.619 7.9517 34.1884 7.95 33.75V16.25C7.94585 15.8109 8.06796 15.3789 8.30333 15L18.9033 25L8.30333 35ZM43.725 14.0833L29.5475 27.4583C29.1439 27.8243 28.6656 28.109 28.1417 28.2953C27.6178 28.4815 27.0593 28.5653 26.5 28.5417C25.9407 28.5653 25.3822 28.4815 24.8583 28.2953C24.3344 28.109 23.8561 27.8243 23.4525 27.4583L9.275 14.0833C9.67887 13.8664 10.1353 13.7516 10.6 13.75H42.4C42.8647 13.7516 43.3211 13.8664 43.725 14.0833Z" fill="white"/>
</g>
<defs>
<linearGradient id="paint0_linear_152_14" x1="26.5" y1="2.158e-05" x2="26.5" y2="50.0004" gradientUnits="userSpaceOnUse">
<stop stop-color="#1D6FF2"/>
<stop offset="1" stop-color="#1AC8FC"/>
</linearGradient>
<clipPath id="clip0_152_14">
<rect width="53" height="50" fill="white"/>
</clipPath>
</defs>
</svg>
