<svg width="53" height="50" viewBox="0 0 53 50" fill="none" xmlns="http://www.w3.org/2000/svg">
<g clip-path="url(#clip0_152_8)">
<path d="M34.2964 0.543457C39.4558 0.543457 42.0355 0.543457 44.8445 1.35867C47.8828 2.39128 50.2905 4.67389 51.3797 7.55433C52.2969 10.2717 52.2969 12.7174 52.2969 17.6087V32.3913C52.2969 37.2826 52.2969 39.7282 51.437 42.3913C50.3478 45.2717 47.9401 47.5543 44.9018 48.5869C42.0928 49.4565 39.5131 49.4565 34.2964 49.4565H18.7036C13.5442 49.4565 10.9645 49.4565 8.15551 48.6413C5.1172 47.5543 2.70949 45.3261 1.62029 42.3913C0.703062 39.7826 0.703062 37.3369 0.703062 32.3913V17.6087C0.703062 12.7174 0.703062 10.2717 1.56296 7.60867C2.70949 4.72824 5.1172 2.44563 8.15551 1.41302C10.9645 0.543457 13.5442 0.543457 18.7036 0.543457H34.2964Z" fill="url(#paint0_linear_152_8)"/>
<path d="M12.5697 21.9022C10.6779 18.6413 9.93263 15.9783 9.93263 14.1848C9.93263 12.3913 10.3912 11.9022 10.8499 11.4674C11.3085 11.0326 13.4296 9.83697 13.8308 9.56523C14.1748 9.34784 15.5506 8.85871 16.4105 10.0544C17.2704 11.25 18.8756 13.587 20.0221 15.1631C21.7992 17.3913 20.3661 18.3696 19.9074 18.9674C19.0476 20.0544 18.5889 20.3261 18.5889 21.6304C18.5889 22.9348 22.4871 26.7391 23.4044 27.6631C24.3216 28.587 28.2198 31.7935 29.4237 32.0109C30.6275 32.1739 32.29 30.9783 32.6339 30.6522C34.4111 29.3478 35.3856 30.3261 36.1882 30.7609C36.9908 31.1957 40.6597 33.3696 41.8062 34.0761C42.8954 34.7826 42.7807 35.9239 42.7807 35.9239C42.7807 35.9239 42.0355 38.0435 40.3157 39.6196C39.9144 40 39.1692 40.4891 37.392 40.4891C35.6149 40.4891 33.6658 40.1631 29.0797 37.7718C25.3535 35.8152 21.7992 32.7718 19.9074 30.9783C18.0157 29.2391 14.7481 25.6522 12.5697 21.9022Z" fill="white"/>
</g>
<defs>
<linearGradient id="paint0_linear_152_8" x1="26.5229" y1="0.565196" x2="26.5229" y2="49.4456" gradientUnits="userSpaceOnUse">
<stop stop-color="#67FF81"/>
<stop offset="1" stop-color="#01B41F"/>
</linearGradient>
<clipPath id="clip0_152_8">
<rect width="53" height="50" fill="white"/>
</clipPath>
</defs>
</svg>
