<svg width="53" height="50" viewBox="0 0 53 50" fill="none" xmlns="http://www.w3.org/2000/svg">
<path d="M11.4834 2.1605e-05H41.5167C43.0256 -0.00282231 44.5202 0.275449 45.9147 0.818868C47.3093 1.36229 48.5764 2.16016 49.6434 3.16669C50.7103 4.17322 51.556 5.36861 52.132 6.68426C52.7081 7.9999 53.003 9.4099 53 10.8334V39.1667C53.003 40.5901 52.7081 42.0001 52.132 43.3158C51.556 44.6314 50.7103 45.8268 49.6434 46.8334C48.5764 47.8399 47.3093 48.6378 45.9147 49.1812C44.5202 49.7246 43.0256 50.0029 41.5167 50H11.4834C9.9745 50.0029 8.47989 49.7246 7.08531 49.1812C5.69073 48.6378 4.42362 47.8399 3.35669 46.8334C2.28976 45.8268 1.44402 44.6314 0.868 43.3158C0.291976 42.0001 -0.00299165 40.5901 2.29013e-05 39.1667V10.8334C-0.0029934 9.4099 0.291973 7.9999 0.867996 6.68425C1.44402 5.36861 2.28976 4.17322 3.35669 3.16669C4.42361 2.16015 5.69072 1.36228 7.08531 0.818864C8.47989 0.275446 9.9745 -0.00282396 11.4834 2.1605e-05Z" fill="url(#paint0_linear_152_18)"/>
<path d="M26.5 46.6667C39.1841 46.6667 49.4667 36.9662 49.4667 25C49.4667 13.0339 39.1841 3.33337 26.5 3.33337C13.8159 3.33337 3.53333 13.0339 3.53333 25C3.53333 36.9662 13.8159 46.6667 26.5 46.6667Z" fill="#2E2E2F"/>
<path fill-rule="evenodd" clip-rule="evenodd" d="M26.0583 13.3333H26.8092L27.1625 11.6666H27.4717L27.6042 13.375C27.8274 13.3822 28.0493 13.4101 28.2667 13.4583L28.7967 11.8333L29.1058 11.875L29.0175 13.5833C29.2434 13.6193 29.4651 13.6751 29.68 13.75L30.3867 12.2083L30.6517 12.2916L30.3425 13.9583C30.5633 14.0416 30.7842 14.0833 31.005 14.1666L31.8883 12.7083L32.1533 12.8333L31.6675 14.4583C31.8883 14.5416 32.065 14.6666 32.2858 14.75L33.3458 13.375L33.6108 13.5L32.9042 15.0833C33.0808 15.2083 33.3017 15.3333 33.4783 15.4583L34.715 14.2083L34.9358 14.375L34.0525 15.875C34.2292 16 34.4058 16.1666 34.5825 16.2916L35.9517 15.2083L36.1725 15.4166L35.1125 16.7916L35.5983 17.25L37.1 16.3333L37.2767 16.5416L36.0842 17.7916L36.4817 18.2916L38.0717 17.5416L38.2483 17.7916L36.8792 18.9166C37.0117 19.0833 37.1 19.2916 37.2325 19.4583L38.9108 18.875L39.0433 19.125L37.5417 20.0833L37.8067 20.7083L39.5292 20.3333L39.6175 20.5833L38.0717 21.3333C38.16 21.5416 38.2042 21.75 38.2925 21.9583L40.0592 21.75L40.1475 22.0416L38.4692 22.625C38.5133 22.8333 38.5575 23.0416 38.6017 23.2916H40.4125L40.4567 23.5833L38.7342 24C38.7342 24.2083 38.7783 24.4583 38.7783 24.6666L40.545 24.875V25.1666L38.7783 25.375C38.7856 25.5842 38.7708 25.7935 38.7342 26L40.4567 26.375L40.4125 26.6666L38.6458 26.7083L38.5133 27.3333L40.1917 27.9166L40.1475 28.1666L38.3808 28C38.3367 28.2083 38.2483 28.4166 38.2042 28.625L39.7942 29.375L39.7058 29.625L37.9392 29.25L37.6742 29.875L39.1758 30.8333L39.0433 31.0833L37.3208 30.5416C37.2325 30.7083 37.1 30.9166 37.0117 31.0833L38.3808 32.1666L38.2042 32.4166L36.6142 31.6666C36.481 31.857 36.3334 32.038 36.1725 32.2083L37.4092 33.4166L37.2325 33.625L35.7308 32.7083C35.5917 32.8812 35.4283 33.0354 35.245 33.1666L36.305 34.5416L36.0842 34.75L34.6708 33.6666C34.5053 33.8176 34.3281 33.9569 34.1408 34.0833L35.0242 35.5416L34.8033 35.7083L33.5667 34.5C33.39 34.625 33.1692 34.75 32.9925 34.875L33.6992 36.4583L33.4342 36.5833L32.33 35.25C32.1331 35.3637 31.9262 35.4613 31.7117 35.5416L32.2417 37.1666L31.9767 37.2916L31.0492 35.8333C30.8354 35.9213 30.6137 35.9911 30.3867 36.0416L30.6958 37.7083L30.4308 37.7916L29.68 36.25C29.4592 36.2916 29.2383 36.375 29.0175 36.4166L29.1058 38.125L28.7967 38.1666L28.2667 36.5416C28.0458 36.5833 27.825 36.5833 27.56 36.625L27.4717 38.3333H27.1625L26.8092 36.6666H26.0583L25.7492 38.3333H25.5725L25.44 36.625C25.2024 36.6152 24.9661 36.5873 24.7333 36.5416L24.2033 38.1666L23.8942 38.125L23.9825 36.4166C23.7566 36.3806 23.5349 36.3248 23.32 36.25L22.6133 37.7916L22.3483 37.7083L22.6575 36.0416C22.4367 35.9583 22.2158 35.9166 21.995 35.8333L21.0675 37.2916L20.8025 37.1666L21.2883 35.5416C21.0675 35.4583 20.8908 35.3333 20.67 35.25L19.61 36.625L19.345 36.5L20.0517 34.9166C19.875 34.7916 19.6542 34.6666 19.4775 34.5416L18.2408 35.7916L18.02 35.625L18.9033 34.125C18.7267 34 18.55 33.8333 18.3733 33.7083L17.0042 34.7916L16.7833 34.5833L17.8433 33.2083C17.6926 33.0453 17.5303 32.8921 17.3575 32.75L15.8558 33.7083L15.6792 33.5L16.9158 32.25C16.758 32.0773 16.6106 31.8965 16.4742 31.7083L14.8842 32.4583L14.7075 32.2083L16.0767 31.125C15.9442 30.9583 15.8558 30.75 15.7233 30.5416L14.045 31.125L13.9125 30.875L15.4142 29.9166L15.1492 29.2916L13.4267 29.6666L13.3383 29.4166L14.9283 28.625C14.84 28.4166 14.7958 28.2083 14.7075 28L12.9408 28.2083L12.8525 27.9166L14.5308 27.3333C14.4867 27.125 14.4425 26.9166 14.3983 26.6666H12.6317L12.5875 26.375L14.31 25.9583C14.31 25.75 14.2658 25.5416 14.2658 25.2916L12.4992 25.0833V24.7916L14.2658 24.5833C14.2585 24.3603 14.2733 24.1371 14.31 23.9166L12.5875 23.5416L12.6317 23.25L14.3983 23.2083L14.5308 22.5833L12.8525 22L12.9408 21.75L14.7075 21.9166C14.7517 21.7083 14.84 21.5 14.8842 21.2916L13.2942 20.5416L13.3825 20.2916L15.105 20.6666L15.37 20.0416L13.8683 19.125L14.0008 18.875L15.6792 19.4166C15.8117 19.2083 15.9 19.0416 16.0325 18.8333L14.6633 17.75L14.84 17.5L16.43 18.25C16.5625 18.0833 16.695 17.875 16.8275 17.7083L15.5908 16.4583L15.7675 16.25L17.2692 17.1666C17.4189 16.9898 17.5812 16.8227 17.755 16.6666L16.695 15.2916L16.9158 15.0833L18.285 16.1666C18.4506 16.0156 18.6277 15.8764 18.815 15.75L17.9317 14.2916L18.1525 14.125L19.3892 15.3333C19.5658 15.2083 19.7867 15.0833 19.9633 14.9583L19.2567 13.4166L19.5217 13.2916L20.6258 14.625C20.8227 14.5112 21.0296 14.4137 21.2442 14.3333L20.7583 12.7083L21.0233 12.5833L21.9508 14.0416C22.1646 13.9536 22.3863 13.8838 22.6133 13.8333L22.3042 12.1666L22.5692 12.0833L23.32 13.625C23.5408 13.5833 23.7617 13.5 23.9825 13.4583L23.8942 11.75L24.2033 11.7083L24.7333 13.3333C24.9542 13.2916 25.175 13.2916 25.44 13.25L25.5283 11.5416H25.8375L26.0583 13.3333ZM26.5 15.5833C24.5345 15.5833 22.6132 16.1331 20.979 17.1633C19.3448 18.1934 18.0711 19.6576 17.3189 21.3706C16.5668 23.0837 16.37 24.9687 16.7534 26.7873C17.1369 28.6058 18.0833 30.2763 19.4731 31.5874C20.8629 32.8985 22.6336 33.7914 24.5613 34.1532C26.489 34.5149 28.4871 34.3292 30.3029 33.6197C32.1188 32.9101 33.6708 31.7085 34.7627 30.1668C35.8547 28.6251 36.4375 26.8125 36.4375 24.9583C36.4335 22.473 35.3853 20.0906 33.5225 18.3333C31.6597 16.5759 29.1344 15.587 26.5 15.5833Z" fill="url(#paint1_linear_152_18)"/>
<path fill-rule="evenodd" clip-rule="evenodd" d="M25.8375 7.5H26.8975L27.3833 5H27.825L28.0017 7.54167C28.355 7.58333 28.7083 7.625 29.0175 7.66667L29.8125 5.20833L30.2542 5.29167L30.1217 7.875C30.475 7.95833 30.7842 8 31.0933 8.08333L32.1975 5.70833L32.6392 5.83333L32.1975 8.41667C32.5137 8.50947 32.8235 8.6208 33.125 8.75L34.5383 6.45833L34.9358 6.625L34.185 9.16667C34.4942 9.29167 34.8033 9.45833 35.0683 9.58333L36.7467 7.45833L37.1442 7.66667L36.04 10.125C36.3298 10.2912 36.6099 10.472 36.8792 10.6667L38.8225 8.70833L39.1758 8.95833L37.7625 11.2917C38.0275 11.5 38.2925 11.7083 38.5133 11.9167L40.6775 10.2083L40.9867 10.5L39.3083 12.6667C39.5292 12.875 39.75 13.125 39.9708 13.3333L42.3558 11.875L42.6208 12.2083L40.6775 14.2083C40.8833 14.4483 41.0749 14.6986 41.2517 14.9583L43.8133 13.75L44.0783 14.0833L41.9142 15.875C42.0925 16.1296 42.2547 16.394 42.4 16.6667L45.1383 15.75L45.3592 16.125L42.9742 17.6667C43.1067 17.9583 43.2392 18.2083 43.3717 18.5L46.1983 17.875L46.3308 18.25L43.7692 19.5L44.0342 20.375L46.905 20.0833L46.9933 20.5L44.2992 21.4583C44.3433 21.75 44.4317 22.0417 44.4758 22.3333H47.3908L47.435 22.75L44.6083 23.4167C44.6461 23.7348 44.6608 24.055 44.6525 24.375L47.5233 24.7083V25.125L44.6525 25.4583C44.6525 25.75 44.6083 26.0417 44.6083 26.3333L47.435 26.9583L47.3908 27.375L44.4758 27.4167C44.4384 27.7256 44.3794 28.0318 44.2992 28.3333L46.9933 29.2917L46.905 29.7083L44.0342 29.4167L43.7692 30.2917L46.3308 31.5L46.1983 31.875L43.4158 31.2917C43.2833 31.5833 43.1508 31.875 43.0183 32.1667L45.4033 33.6667L45.2267 34.0417L42.5325 33.1667C42.397 33.4442 42.2344 33.7093 42.0467 33.9583L44.2108 35.7083L43.99 36.0417L41.4283 34.875C41.2517 35.125 41.0308 35.375 40.8542 35.625L42.7975 37.5833L42.5325 37.9167L40.1475 36.4583C39.9267 36.7083 39.7058 36.9167 39.485 37.1667L41.1633 39.2917L40.8542 39.5833L38.69 37.9167C38.425 38.125 38.2042 38.3333 37.9392 38.5417L39.3083 40.8333L38.955 41.0833L37.0117 39.2083C36.7467 39.375 36.4817 39.5833 36.1725 39.75L37.2767 42.125L36.8792 42.3333L35.2008 40.2917C34.8917 40.4583 34.5825 40.5833 34.2733 40.75L35.0683 43.25L34.6708 43.4167L33.2575 41.2083C32.956 41.3375 32.6462 41.4489 32.33 41.5417L32.8158 44.0833L32.3742 44.2083L31.27 41.875C30.9608 41.9583 30.6075 42.0417 30.2542 42.125L30.3867 44.625L29.945 44.7083L29.15 42.3333L28.09 42.4583L27.9133 44.9583L27.4717 45L26.9858 42.5417H25.8375L25.3517 45L24.91 44.9583L24.7333 42.4583C24.38 42.4167 24.0267 42.4167 23.6733 42.375L22.9225 44.75L22.4808 44.6667L22.6133 42.2083C22.26 42.125 21.9067 42.0833 21.5533 42L20.4933 44.25L20.0517 44.125L20.4492 41.7083C20.104 41.6159 19.7648 41.5046 19.4333 41.375L18.1525 43.4583L17.755 43.2917L18.4617 40.9583C18.1251 40.8308 17.8001 40.6775 17.49 40.5L15.9442 42.4167L15.5467 42.2083L16.5183 40C16.2092 39.8333 15.9 39.625 15.5908 39.4583L13.8683 41.2083L13.515 40.9583L14.7517 38.875C14.4425 38.6667 14.1775 38.4583 13.8683 38.2083L11.925 39.7083L11.6158 39.4167L13.0733 37.5L12.2783 36.75L10.2025 38.0417L9.89334 37.7083L11.5717 35.9583C11.3508 35.6667 11.13 35.4167 10.9092 35.125L8.70084 36.1667L8.43584 35.8333L10.2908 34.2917C10.0832 33.9954 9.89156 33.6895 9.71667 33.375L7.37584 34.1667L7.19917 33.7917L9.23084 32.5C9.06491 32.1743 8.91747 31.8405 8.78917 31.5L6.40417 32L6.27167 31.625L8.43584 30.5833C8.30334 30.25 8.215 29.9167 8.0825 29.5417L5.65334 29.7917L5.565 29.375L7.86167 28.5833C7.77334 28.25 7.72917 27.875 7.64084 27.5417H5.1675L5.12334 27.125L7.50834 26.5417C7.46417 26.2083 7.46417 25.8333 7.42 25.5L4.99084 25.2083V24.7917L7.42 24.5C7.42 24.125 7.46417 23.7917 7.46417 23.4167L5.07917 22.875L5.12334 22.4583L7.59667 22.4167C7.64084 22.0833 7.72917 21.7083 7.77334 21.375L5.47667 20.5833L5.565 20.1667L7.99417 20.4167C8.0825 20.0833 8.215 19.75 8.30334 19.375L6.095 18.3333L6.27167 17.9583L8.65667 18.4583C8.78917 18.125 8.96584 17.7917 9.09834 17.5L7.0225 16.2083L7.19917 15.8333L9.54 16.625C9.7149 16.3105 9.90653 16.0046 10.1142 15.7083L8.215 14.2083L8.43584 13.875L10.6883 14.9167C10.9092 14.625 11.13 14.3333 11.3508 14.0833L9.62834 12.3333L9.89334 12L12.0133 13.2917C12.2783 13.0417 12.4992 12.7917 12.7642 12.5417L11.2625 10.625L11.5717 10.3333L13.5592 11.8333C13.8242 11.625 14.1333 11.375 14.3983 11.1667L13.1175 9.08333L13.4708 8.83333L15.2375 10.5833C15.5467 10.375 15.8558 10.2083 16.165 10L15.1492 7.75L15.5467 7.54167L17.1367 9.45833C17.4458 9.29167 17.7992 9.16667 18.1083 9L17.3575 6.66667L17.755 6.5L19.08 8.625C19.4115 8.49539 19.7507 8.38409 20.0958 8.29167L19.6542 5.83333L20.0958 5.70833L21.1558 7.95833C21.4895 7.86907 21.8288 7.79949 22.1717 7.75L22.0392 5.25L22.4808 5.16667L23.2758 7.54167L24.3358 7.41667L24.5125 4.91667L24.9542 4.875L25.8375 7.5ZM15.0608 36.1667C16.2533 37.25 18.1967 36.7917 19.0358 35.4167L23.8058 27.5C24.2588 26.733 24.4892 25.8667 24.4737 24.9888C24.4582 24.1109 24.1973 23.2524 23.7175 22.5L18.815 14.6667C17.9758 13.3333 16.0325 12.875 14.84 14C13.2695 15.447 12.0256 17.1788 11.1831 19.0912C10.3406 21.0035 9.9169 23.0569 9.93753 25.1278C9.95816 27.1986 10.4227 29.2442 11.3031 31.1413C12.1836 33.0383 13.4618 34.7478 15.0608 36.1667ZM25.2192 21.625C25.7063 22.3859 26.3929 23.0156 27.2129 23.4535C28.0329 23.8914 28.9586 24.1226 29.9008 24.125H39.5292C41.2075 24.125 42.5767 22.7917 42.1792 21.25C41.6418 19.2246 40.6747 17.323 39.3362 15.6602C37.9978 13.9974 36.3158 12.608 34.3919 11.5759C32.4681 10.5437 30.3423 9.89042 28.1432 9.65537C25.9441 9.42032 23.7174 9.60843 21.5975 10.2083C20.0075 10.6667 19.4333 12.4583 20.2725 13.8333L25.2192 21.625ZM29.945 25.8333C29.0088 25.8362 28.0895 26.068 27.2767 26.5062C26.4638 26.9443 25.7854 27.5739 25.3075 28.3333L20.5375 36.25C20.3284 36.5629 20.1986 36.9171 20.1583 37.285C20.1179 37.653 20.168 38.0247 20.3048 38.3714C20.4415 38.7181 20.6612 39.0304 20.9466 39.2839C21.2321 39.5375 21.5758 39.7255 21.9508 39.8333C24.0596 40.3857 26.2643 40.5337 28.4347 40.2685C30.605 40.0033 32.697 39.3302 34.587 38.2892C36.4769 37.2482 38.1265 35.8602 39.4381 34.2075C40.7497 32.5547 41.6968 30.6707 42.2233 28.6667C42.6208 27.1667 41.2517 25.7917 39.5733 25.7917L29.945 25.8333ZM26.2792 24.1667C26.1045 24.1667 25.9337 24.2155 25.7884 24.3071C25.6432 24.3987 25.5299 24.5288 25.4631 24.6811C25.3962 24.8334 25.3787 25.0009 25.4128 25.1626C25.4469 25.3242 25.531 25.4727 25.6546 25.5893C25.7781 25.7058 25.9355 25.7852 26.1068 25.8173C26.2782 25.8495 26.4558 25.833 26.6172 25.7699C26.7786 25.7068 26.9166 25.6 27.0136 25.463C27.1107 25.3259 27.1625 25.1648 27.1625 25C27.1618 24.7792 27.0685 24.5676 26.903 24.4115C26.7375 24.2553 26.5132 24.1673 26.2792 24.1667Z" fill="url(#paint2_linear_152_18)"/>
<defs>
<linearGradient id="paint0_linear_152_18" x1="26.5" y1="50" x2="26.5" y2="2.38419e-05" gradientUnits="userSpaceOnUse">
<stop stop-color="#8E8E93"/>
<stop offset="1" stop-color="#E5E5EA"/>
</linearGradient>
<linearGradient id="paint1_linear_152_18" x1="26.5269" y1="11.6516" x2="26.5269" y2="38.3183" gradientUnits="userSpaceOnUse">
<stop stop-color="#B4B4B9"/>
<stop offset="1" stop-color="#B4B4B9"/>
</linearGradient>
<linearGradient id="paint2_linear_152_18" x1="26.2642" y1="4.98197" x2="26.2642" y2="44.9445" gradientUnits="userSpaceOnUse">
<stop stop-color="#DCDCE1"/>
<stop offset="1" stop-color="#98989D"/>
</linearGradient>
</defs>
</svg>
